<svg xmlns="http://www.w3.org/2000/svg" xml:space="preserve" id="Layer_1" x="0" y="0" style="enable-background:new 0 0 151 32" version="1.1" viewBox="0 0 151 32"><style type="text/css">.st0{fill:#fde000}.st1{fill:#0069e4}.st2{fill:#0069e0}.st3{enable-background:new}</style><g><g id="Group_9499_00000058570219111747747850000014438112401741104542_" transform="translate(-364.5 -44.5)"><path id="Subtraction_4_00000026148175498380211680000000511775886843050929_" d="M373.45 55.9h-8.54V44.5h11.4v7.46c-.81.2-1.52.64-2.03 1.27-.27.32-.46.68-.59 1.05-.15.39-.22.81-.22 1.25l-.02.37z" class="st0"/><path id="Subtraction_3_00000005963004546318312560000005746136014442095790_" d="M389.37 68.96h-8.54v-11.4h8.54v11.4z" class="st0"/><path id="Subtraction_2_00000021088531479355920030000012683032279712409480_" d="M389.37 55.9h-8.54v-.37c0-.42-.07-.86-.22-1.25s-.34-.73-.59-1.05a3.63 3.63 0 0 0-2.03-1.27V44.5h11.4l-.02 11.4z" class="st1"/><path id="Subtraction_1_00000137124379661203054260000002627989347693451151_" d="M373.45 68.96h-8.54v-11.4h8.54v11.4z" class="st2"/></g><g class="st3"><path d="M40.84 7.97h-6.75v4.65h6.51v2.75h-6.51v9.22h-2.92V5.23h9.67v2.74zM52.51 12.37h2.83v12.21h-2.83V23.3c-1.16 1.09-2.41 1.63-3.75 1.63-1.69 0-3.08-.61-4.19-1.83-1.1-1.25-1.64-2.8-1.64-4.67 0-1.83.55-3.36 1.64-4.58 1.09-1.22 2.47-1.83 4.11-1.83 1.42 0 2.7.59 3.82 1.76v-1.41zm-6.7 6.07c0 1.17.31 2.12.94 2.86.64.74 1.45 1.12 2.43 1.12 1.04 0 1.89-.36 2.53-1.08.64-.74.97-1.69.97-2.83s-.32-2.09-.97-2.83c-.64-.73-1.48-1.09-2.51-1.09-.97 0-1.78.37-2.43 1.1-.63.74-.96 1.66-.96 2.75zM66 14.46l-2.33 1.24c-.37-.75-.82-1.13-1.37-1.13-.26 0-.48.09-.67.26-.18.17-.28.39-.28.66 0 .47.54.93 1.63 1.39 1.5.64 2.5 1.24 3.02 1.78s.78 1.28.78 2.19c0 1.18-.44 2.17-1.3 2.96-.84.75-1.86 1.13-3.06 1.13-2.05 0-3.5-1-4.35-3l2.41-1.12c.33.58.59.96.76 1.12.34.32.75.48 1.23.48.95 0 1.43-.43 1.43-1.3 0-.5-.37-.97-1.1-1.4-.28-.14-.57-.28-.85-.41s-.57-.27-.87-.41c-.82-.4-1.4-.8-1.73-1.2-.43-.51-.64-1.17-.64-1.97 0-1.06.36-1.94 1.09-2.63.74-.69 1.65-1.04 2.71-1.04 1.57-.02 2.73.78 3.49 2.4zM72.24 15.01v9.58h-2.82v-9.58h-1.2v-2.63h1.2V7.9h2.82v4.48h2.19v2.63h-2.19zM87.57 7.97h-7.76v4.65h7.54v2.75h-7.54v6.47h7.76v2.75H76.89V5.23h10.68v2.74zM94.66 17.98l-4.39-5.61h3.36l2.72 3.56 2.77-3.56h3.46l-4.51 5.61 5.23 6.61h-3.36l-3.59-4.56-3.67 4.56h-3.45l5.43-6.61zM108.02 31.23h-2.82V12.37h2.82v1.33c1.11-1.11 2.37-1.67 3.79-1.67 1.68 0 3.06.62 4.15 1.86 1.1 1.23 1.66 2.78 1.66 4.65 0 1.83-.55 3.36-1.64 4.58-1.09 1.21-2.46 1.82-4.11 1.82-1.43 0-2.71-.57-3.84-1.72v8.01zm6.71-12.67c0-1.17-.32-2.12-.95-2.86-.64-.74-1.45-1.12-2.43-1.12-1.04 0-1.88.36-2.52 1.08-.64.72-.97 1.66-.97 2.83 0 1.15.32 2.09.97 2.83.64.73 1.47 1.09 2.51 1.09.98 0 1.79-.37 2.42-1.1.65-.73.97-1.65.97-2.75zM131.72 19.15h-8.75c.08 1 .4 1.8.98 2.4.58.58 1.32.88 2.22.88.7 0 1.28-.17 1.74-.5.45-.33.97-.95 1.54-1.86l2.38 1.33c-.37.63-.76 1.16-1.17 1.61-.41.45-.85.81-1.32 1.1-.47.29-.97.5-1.52.63-.54.13-1.13.2-1.77.2-1.82 0-3.29-.59-4.39-1.76-1.1-1.18-1.66-2.74-1.66-4.69 0-1.93.54-3.49 1.61-4.69 1.08-1.18 2.51-1.77 4.29-1.77 1.8 0 3.22.57 4.26 1.72 1.04 1.14 1.55 2.71 1.55 4.73l.01.67zm-2.89-2.31c-.39-1.5-1.34-2.26-2.85-2.26-.34 0-.66.05-.96.16-.3.1-.58.25-.82.45-.25.2-.46.43-.63.71-.18.28-.31.59-.4.94h5.66zM134.81 12.37h2.82v1.09c.52-.54.98-.92 1.38-1.12.41-.21.89-.31 1.46-.31.74 0 1.52.24 2.33.73l-1.29 2.58c-.54-.38-1.06-.58-1.57-.58-1.54 0-2.31 1.16-2.31 3.49v6.33h-2.82V12.37zM148.25 15.01v9.58h-2.82v-9.58h-1.2v-2.63h1.2V7.9h2.82v4.48h2.19v2.63h-2.19z"/></g></g></svg>