<svg xmlns="http://www.w3.org/2000/svg" width="15" height="10.073" viewBox="0 0 15 10.073">
  <g id="Group_27" data-name="Group 27" transform="translate(-287 -497)">
    <g id="Group_26" data-name="Group 26">
      <g id="Group_24" data-name="Group 24" transform="translate(-110.011 190.521)">
        <g id="Group_22" data-name="Group 22">
          <path id="Path_98" data-name="Path 98" d="M397.011,306.479h6.976v5.428h-6.976v-5.428Z" fill="#fff" fill-rule="evenodd"/>
          <rect id="Rectangle_36" data-name="Rectangle 36" width="14.977" height="10.024" transform="translate(397.033 306.504)" fill="#fff"/>
          <path id="Path_99" data-name="Path 99" d="M397.011,306.479h6.976v5.428h-6.976v-5.428Zm.887.418h-.243l-.07-.209-.07.209h-.243l.191.139-.07.243.192-.156.191.139-.069-.226.191-.139Zm5.759,4.471h-.227l-.087-.209-.069.209h-.226l.191.139-.087.243.191-.156.192.156-.07-.243.192-.139Zm-1.149,0h-.243l-.07-.209-.07.209h-.243l.191.139-.069.243.191-.156.192.156-.07-.243.191-.139Zm-1.165,0h-.226l-.07-.209-.07.209h-.243l.191.139-.087.243.209-.156.191.156-.07-.243.175-.139Zm-1.149,0h-.226l-.069-.209-.087.209h-.227l.192.139-.087.243.209-.156.191.156-.087-.243.191-.139Zm-1.148,0h-.226l-.087-.209-.07.209h-.226l.192.139-.087.243.191-.156.192.156-.07-.243.191-.139Zm-1.148,0h-.243l-.07-.209-.07.209h-.243l.191.139-.07.243.192-.156.191.156-.069-.243.191-.139Zm5.15-.557h-.226l-.07-.209-.07.209h-.243l.191.139-.087.244.209-.156.191.138-.087-.226.192-.139Zm-1.148,0h-.227l-.087-.209-.069.209h-.227l.192.139-.087.244.191-.156.192.138-.07-.226.192-.139Zm-1.149,0h-.244l-.069-.209-.07.209h-.243l.191.139-.069.244.191-.156.191.138-.069-.226.191-.139Zm-1.148,0h-.243l-.07-.209-.07.209h-.244l.192.139-.07.244.192-.156.191.138-.07-.226.192-.139Zm-1.166,0h-.226l-.07-.209-.069.209h-.244l.192.139-.088.244.209-.156.192.138-.087-.226.191-.139Zm4.611-1.113h-.226l-.07-.209-.07.209h-.243l.191.139-.087.226.209-.139.191.139-.087-.226.192-.139Zm-1.148,0h-.227l-.087-.209-.069.209h-.227l.192.139-.087.226.191-.139.192.139-.07-.226.192-.139Zm-1.149,0h-.244l-.069-.209-.07.209h-.243l.191.139-.069.226.191-.139.191.139-.069-.226.191-.139Zm-1.148,0h-.243l-.07-.209-.07.209h-.244l.192.139-.07.226.192-.139.191.139-.07-.226.192-.139Zm-1.166,0h-.226l-.07-.209-.069.209h-.244l.192.139-.088.226.209-.139.192.139-.087-.226.191-.139Zm4.611-1.114h-.226l-.07-.226-.07.226h-.243l.191.139-.087.226.209-.138.191.138-.087-.226.192-.139Zm-1.148,0h-.227l-.087-.226-.069.226h-.227l.192.139-.087.226.191-.138.192.138-.07-.226.192-.139Zm-1.149,0h-.244l-.069-.226-.07.226h-.243l.191.139-.069.226.191-.138.191.138-.069-.226.191-.139Zm-1.148,0h-.243l-.07-.226-.07.226h-.244l.192.139-.07.226.192-.138.191.138-.07-.226.192-.139Zm-1.166,0h-.226l-.07-.226-.069.226h-.244l.192.139-.088.226.209-.138.192.138-.087-.226.191-.139Zm4.611-1.131h-.226l-.07-.208-.07.208h-.243l.191.14-.087.243.209-.157.191.157-.087-.243.192-.14Zm-1.148,0h-.227l-.087-.208-.069.208h-.227l.192.14-.087.243.191-.157.192.157-.07-.243.192-.14Zm-1.149,0h-.244l-.069-.208-.07.208h-.243l.191.14-.069.243.191-.157.191.157-.069-.243.191-.14Zm-1.148,0h-.243l-.07-.208-.07.208h-.244l.192.14-.07.243.192-.157.191.157-.07-.243.192-.14Zm-1.166,0h-.226l-.07-.208-.069.208h-.244l.192.14-.088.243.209-.157.192.157-.087-.243.191-.14Zm5.22,2.8h-.227l-.087-.209-.069.209h-.226l.191.14-.087.226.191-.139.192.139-.07-.226.192-.14Zm-1.149,0h-.243l-.07-.209-.07.209h-.243l.191.14-.069.226.191-.139.192.139-.07-.226.191-.14Zm-1.165,0h-.226l-.07-.209-.07.209h-.243l.191.14-.087.226.209-.139.191.139-.07-.226.175-.14Zm-1.149,0h-.226l-.069-.209-.087.209h-.227l.192.14-.087.226.209-.139.191.139-.087-.226.191-.14Zm-1.148,0h-.226l-.087-.209-.07.209h-.226l.192.14-.087.226.191-.139.192.139-.07-.226.191-.14Zm-1.148,0h-.243l-.07-.209-.07.209h-.243l.191.14-.07.226.192-.139.191.139-.069-.226.191-.14Zm5.759-1.113h-.227l-.087-.227-.069.227h-.226l.191.139-.087.226.191-.139.192.139-.07-.226.192-.139Zm-1.149,0h-.243l-.07-.227-.07.227h-.243l.191.139-.069.226.191-.139.192.139-.07-.226.191-.139Zm-1.165,0h-.226l-.07-.227-.07.227h-.243l.191.139-.087.226.209-.139.191.139-.07-.226.175-.139Zm-1.149,0h-.226l-.069-.227-.087.227h-.227l.192.139-.087.226.209-.139.191.139L400,309.28l.191-.139Zm-1.148,0h-.226l-.087-.227-.07.227h-.226l.192.139-.087.226.191-.139.192.139-.07-.226.191-.139Zm-1.148,0h-.243l-.07-.227-.07.227h-.243l.191.139-.07.226.192-.139.191.139-.069-.226.191-.139Zm5.759-1.113h-.227l-.087-.227-.069.227h-.226l.191.139-.087.226.191-.14.192.14-.07-.226.192-.139Zm-1.149,0h-.243l-.07-.227-.07.227h-.243l.191.139-.069.226.191-.14.192.14-.07-.226.191-.139Zm-1.165,0h-.226l-.07-.227-.07.227h-.243l.191.139-.087.226.209-.14.191.14-.07-.226.175-.139Zm-1.149,0h-.226l-.069-.227-.087.227h-.227l.192.139-.087.226.209-.14.191.14-.087-.226.191-.139Zm-1.148,0h-.226l-.087-.227-.07.227h-.226l.192.139-.087.226.191-.14.192.14-.07-.226.191-.139Zm-1.148,0h-.243l-.07-.227-.07.227h-.243l.191.139-.07.226.192-.14.191.14-.069-.226.191-.139Zm5.759-1.131h-.227l-.087-.209-.069.209h-.226l.191.139-.087.243.191-.156.192.139-.07-.226.192-.139Zm-1.149,0h-.243l-.07-.209-.07.209h-.243l.191.139-.069.243.191-.156.192.139-.07-.226.191-.139Zm-1.165,0h-.226l-.07-.209-.07.209h-.243l.191.139-.087.243.209-.156.191.139-.07-.226.175-.139Zm-1.149,0h-.226l-.069-.209-.087.209h-.227l.192.139-.087.243.209-.156.191.139-.087-.226.191-.139Zm-1.148,0h-.226l-.087-.209-.07.209h-.226l.192.139-.087.243.191-.156.192.139-.07-.226Z" fill="#2c3281" fill-rule="evenodd"/>
        </g>
        <g id="Group_23" data-name="Group 23">
          <rect id="Rectangle_37" data-name="Rectangle 37" width="15" height="0.783" transform="translate(397.011 312.672)" fill="#dc1b29"/>
          <rect id="Rectangle_38" data-name="Rectangle 38" width="15" height="0.782" transform="translate(397.011 315.77)" fill="#dc1b29"/>
          <rect id="Rectangle_39" data-name="Rectangle 39" width="15" height="0.783" transform="translate(397.011 314.221)" fill="#dc1b29"/>
          <rect id="Rectangle_40" data-name="Rectangle 40" width="8.024" height="0.783" transform="translate(403.987 311.124)" fill="#dc1b29"/>
          <rect id="Rectangle_41" data-name="Rectangle 41" width="8.024" height="0.783" transform="translate(403.987 306.479)" fill="#dc1b29"/>
          <rect id="Rectangle_42" data-name="Rectangle 42" width="8.024" height="0.783" transform="translate(403.987 308.028)" fill="#dc1b29"/>
          <rect id="Rectangle_43" data-name="Rectangle 43" width="8.024" height="0.783" transform="translate(403.987 309.576)" fill="#dc1b29"/>
        </g>
      </g>
    </g>
  </g>
</svg>
